<svg xmlns="http://www.w3.org/2000/svg" viewBox="0 0 34.38 68.57"><title>Recurso 1flor</title><g id="Capa_2" data-name="Capa 2"><g id="Capa_1-2" data-name="Capa 1"><path d="M25.86,68.43a.57.57,0,0,1-.82-.07.51.51,0,0,1-.13-.29c-.72-1.9-1.46-3.8-2.15-5.72s-1.23-3.63-1.84-5.44c-.78-2.33-1.57-4.66-2.34-7-.26-.77-.49-1.56-.71-2.35a1.6,1.6,0,0,0-.93-1.15,12,12,0,0,1-5.54-5.58c-.49-.9-.82-1.89-1.29-2.8a9.08,9.08,0,0,0-.92-1.13A1.64,1.64,0,0,1,9,36.38a1.1,1.1,0,0,1,.51,0c2,1.51,4.5,2.43,5.81,4.76.49,1,.94,2,1.33,3a2,2,0,0,1,0,.59c-.8-1.41-1.46-2.73-2.27-3.94A8.1,8.1,0,0,0,11,38.1c.29,2.72,4,7.21,6.27,7.67a107.1,107.1,0,0,0-4.85-16.55l.3-.12a6.18,6.18,0,0,1,.51,1c.88,2.71,1.77,5.41,2.58,8.14.62,2.06,1.06,4.18,1.67,6.24.87,3,1.83,5.92,2.75,8.88l.23-.07c-.25-1.26-.51-2.52-.75-3.78-.29-1.54-.56-3.09-.84-4.63S18.28,42,18,40.53c-.41-2.31-.79-4.62-1.21-6.92-.53-2.95-1.07-5.89-1.66-8.83-.29-1.41-.72-2.8-1-4.21-.48-2.12-.92-4.25-1.38-6.37a.49.49,0,0,0-.46-.52.43.43,0,0,0-.27.06,1.68,1.68,0,0,1-1.91-.66A3.7,3.7,0,0,1,9,9.94a2.66,2.66,0,0,0,0-.69c-.85.17-1.61.32-2.38.49A3.14,3.14,0,0,1,3.48,8.49,1.58,1.58,0,0,1,3.34,7.2a1.11,1.11,0,0,1,1.06-1,15.48,15.48,0,0,0,2-.28l-1-.76c-1.56-1.14-1.51-2.59-.72-4a.79.79,0,0,1,1-.35A1,1,0,0,1,5.89.9,21.86,21.86,0,0,1,7.8,2.31a7.69,7.69,0,0,1,.66.62A11.63,11.63,0,0,1,9,.85,1.37,1.37,0,0,1,10.81.1a2.69,2.69,0,0,1,.29.16,2.26,2.26,0,0,1,1.42,2.28c0,.37,0,.74.06,1.18l.57-.05a9.79,9.79,0,0,1,1.79-.07A1.81,1.81,0,0,1,16.75,5a2.37,2.37,0,0,1-1,2.24,2.9,2.9,0,0,1-.29.19c-.69.54-.69.7,0,1.21,1.27.93,1.71,2.24,1.13,3.33a1.29,1.29,0,0,1-1.63.84l-.27-.12-.39-.15c-.48-.21-.89-.26-1.11.37a.86.86,0,0,1-.26.31,10,10,0,0,1,.34,1c.37,1.74.73,3.48,1.11,5.22.13.62.28,1.25.42,1.87l.27,0c.4-1.42.81-2.84,1.21-4.26.33-1.14.62-2.29,1-3.43a1,1,0,0,1,1-.9,14,14,0,0,0-.54,2,8.22,8.22,0,0,0,0,2.16,21.48,21.48,0,0,1-.76,9.36c-.15.48,0,1.08-.62,1.39a1.47,1.47,0,0,0,0,.88q.54,3,1.11,6c.4,2.09.85,4.18,1.23,6.27.33,1.82.59,3.64.89,5.47,0,.06.07.12,0,0,0-1,0-2.14,0-3.29A41.86,41.86,0,0,1,20,34.55c.2-1.13.22-2.29.35-3.42a61,61,0,0,1,1.86-9.86,23.73,23.73,0,0,1,.94-2.42A.84.84,0,0,0,23,17.67a1.18,1.18,0,0,0-.19-.11,1.27,1.27,0,0,1-.35-1.7c.34-1,.82-1.91,1.2-2.75-.65,0-1.49,0-2.32-.14a1.59,1.59,0,0,1-1.54-1.63,1.23,1.23,0,0,1,0-.2,1.82,1.82,0,0,1,1.6-1.92c.68-.06,1.37,0,2,0a18.16,18.16,0,0,0-.38-1.81,1.45,1.45,0,0,1,1.52-1.8,4.53,4.53,0,0,1,1.8.5,2.14,2.14,0,0,1,.7,1,7.37,7.37,0,0,1,.33,1.16l1.18-1.34a2,2,0,0,1,2.09-.41,1.61,1.61,0,0,1,1.12,1.41c.3,1.48.3,1.49-.67,2.62a10.69,10.69,0,0,0,1.43.53,2.34,2.34,0,0,1,1.72,1.6,1.32,1.32,0,0,1-.6,1.69c-.63.36-1.28.68-1.77.93a7.68,7.68,0,0,1,0,1.59c-.44,1.9-3.6,2-4.7.78a.73.73,0,0,0-1-.24.7.7,0,0,0-.16.14,7.31,7.31,0,0,1-1.46.39,1.51,1.51,0,0,0-.8.56,25.23,25.23,0,0,0-2.24,7.79c-.31,2.21-.61,4.41-.9,6.62-.18,1.43-.33,2.87-.4,4.36a12,12,0,0,0,1.19-1.81,16.61,16.61,0,0,1,3.88-5.11,7.3,7.3,0,0,0,.64-.9,4.85,4.85,0,0,1,.71-.86,3.49,3.49,0,0,1,.89-.37,1.94,1.94,0,0,1-.13,1c-1,.76-1,2-1.41,3-.72,1.72-1.56,3.4-2.22,5.15a11.8,11.8,0,0,1-3.12,4.18,1.54,1.54,0,0,1-.46.19,1.13,1.13,0,0,1,.06-.55c.36-.41.76-.77,1.14-1.14a8.39,8.39,0,0,0,1.89-3,16.07,16.07,0,0,1,1.32-2.62,9,9,0,0,0,1-3.26,1,1,0,0,0-.29.1,12.51,12.51,0,0,0-3.09,3.7c-.36.81-.91,1.53-1.3,2.32a7.52,7.52,0,0,0-1,4.32c.07,1.06.08,2.11.05,3.17a48.79,48.79,0,0,0,.93,8,80.13,80.13,0,0,0,2.5,9.87c.53,1.66,1.31,3.25,2,4.87C25.55,67.75,25.7,68.07,25.86,68.43ZM29.21,10l-.1-.06a1.4,1.4,0,0,1,.15-.49c.45-.56.93-1.09,1.39-1.65a.87.87,0,0,0,.26-.57.83.83,0,0,0-.55-.34,1.67,1.67,0,0,0-1.94.8c-.33.56-.54,1.18-.85,1.75-.54,1-.11,1.65.73,2.21a1.08,1.08,0,0,1,.46.84,1,1,0,0,0,.67,1.26l.1,0a2.14,2.14,0,0,1,.68.37,2.12,2.12,0,0,0,2.71.09,1.36,1.36,0,0,0,0-2.49,4,4,0,0,0-3.69-.5,1.8,1.8,0,0,1-.8,0l0-.34c.46-.12.92-.22,1.37-.36,1.64-.48,1.87-1.08,1.3-2.82ZM16.88,16.39c-.11.31-.22.62-.32.94-.33,1-.63,2.05-1,3.06a7.93,7.93,0,0,0,0,4.13c.14.78.3,1.56.45,2.35l.22,0A19.17,19.17,0,0,0,16.88,16.39Zm7.3,1.14a7.49,7.49,0,0,0,1.41-.28,1.26,1.26,0,0,0,.76-.69c-.18-1,.85-2.45-.87-3a.4.4,0,0,1-.14-.15c-.33-.43-.64-.33-1,0A5.61,5.61,0,0,0,23,15.83C22.53,17.06,23.08,17.36,24.18,17.53ZM8.94,6.18c0-1.62-.15-2.09-1.13-3.08a16.42,16.42,0,0,0-2-1.67.72.72,0,0,0-.71.07,2.23,2.23,0,0,0,.19,2.94A35.25,35.25,0,0,0,8.44,6.31,1,1,0,0,0,8.94,6.18Zm3.15,1.48a2.64,2.64,0,0,1,.63,0c1.72.54,2.38-.28,3.3-1.49a1.13,1.13,0,0,0-.73-1.84,2.84,2.84,0,0,0-3.19,1c-.24.3-.51.59-.73.84Zm15.4,6.13a11.07,11.07,0,0,1-.16,2.15,1.21,1.21,0,0,0,.55,1.63h0a2.84,2.84,0,0,0,2.87,0,1.49,1.49,0,0,0,.7-1.17,1.12,1.12,0,0,0-.92-1.17A3.48,3.48,0,0,1,28.48,14a.65.65,0,0,0-.89-.25l-.1.06ZM10.78,5.88a13.46,13.46,0,0,1,.83-1.6A2.64,2.64,0,0,0,12,2.2,1.53,1.53,0,0,0,10.44.83,1.24,1.24,0,0,0,9.26,2.14h0a15.63,15.63,0,0,0,0,2.37c.09,1.32.11,1.32,1.49,1.36ZM27,9.13c-.1-.54-.2-1.06-.31-1.59a1.88,1.88,0,0,0-2.24-1.43,1.6,1.6,0,0,0-.31.1,1.33,1.33,0,0,0-.65.93c-.13,1.7,1,2.67,2.23,3.54a.92.92,0,0,0,.89-.14A5.79,5.79,0,0,0,27,9.13ZM13.08,10a2.2,2.2,0,0,0,1.53,2.23A1.16,1.16,0,0,0,16,12.19a1.39,1.39,0,0,0,.32-1.49,3,3,0,0,0-2.85-2.26,2,2,0,0,1-.95-.19c-.4-.19-.67-.1-.73.3a.89.89,0,0,0,.47.5,5.37,5.37,0,0,1,2.2,1.86l-.13.15Zm9.6,2.74.06.12a11.76,11.76,0,0,0,1.49-.68c1.24-.78,1.24-.9.07-1.71a3.64,3.64,0,0,0-2.94-.79,1.45,1.45,0,0,0-1.09,1.44,1.21,1.21,0,0,0,1,1.42h0A14.43,14.43,0,0,0,22.68,12.76ZM6.7,6.48c-.67.06-1.27.14-1.87.18a1.09,1.09,0,0,0-1.1,1,1.15,1.15,0,0,0,.74,1.16,3.6,3.6,0,0,0,2.83.39c1-.22,1-.21.92-1.26a.82.82,0,0,1,0-.27c.25-.85-.39-1-.94-1.13A2.09,2.09,0,0,0,6.7,6.48Zm4.77,7,.12-.16.35,0a1,1,0,0,0,.65-1.69,5.41,5.41,0,0,1-.65-1.15c-.5-1.16-.49-1.16-1.68-.93-.82.16-1,.35-.85,1.16a5.19,5.19,0,0,0,.79,1.84A5.14,5.14,0,0,0,11.47,13.5Zm1.31-2.24.16-.1-.6-1.82L12,9.46Z"/><path d="M8.92,28.52c-.26.33-.53.7-.84,1.05a2,2,0,0,1-2.76.21l-.09-.08a4.29,4.29,0,0,1-1.79-3.47,12.55,12.55,0,0,1,.31-1.6c-1.32.58-2.11-.44-3.1-.83a1,1,0,0,1-.58-1.33.79.79,0,0,1,.18-.29A3.19,3.19,0,0,1,2.34,20.3a9.78,9.78,0,0,0-.2-1.08,2.85,2.85,0,0,1,1-2.91,2.38,2.38,0,0,1,2.5.17c.51.49.94,1.06,1.41,1.61.19-2.41,1.81-3,3.14-2.8s1.64,1.31,1.12,4c2.09,0,2.31,1.6,2.61,3.09.16.77-.41,1.43-1.45,1.87,1.07,1.35,1.44,2.81-.11,4A3.6,3.6,0,0,1,8.92,28.52ZM7.11,20.76l-.25,0A5.66,5.66,0,0,0,6.78,20a7.25,7.25,0,0,0-.41-1.9,2.32,2.32,0,0,0-2.21-1.65,1.69,1.69,0,0,0-1.5,1.27,2,2,0,0,0,1,2.64l.3.11a9.12,9.12,0,0,1,1.71.93,1.19,1.19,0,0,1,.23.53,1.08,1.08,0,0,1-.56.1,16.27,16.27,0,0,1-1.87-.93,1.46,1.46,0,0,0-1.71-.06A7.36,7.36,0,0,0,.53,22.8a.5.5,0,0,0,.11.39,3.08,3.08,0,0,0,3.68.64,1.37,1.37,0,0,1,.81-.34.87.87,0,0,0,1.08-.56.94.94,0,0,0,0-.55,1.28,1.28,0,0,1,1.07-1.46.75.75,0,0,1,.21,0,.91.91,0,0,0,.23-.15l-.28-.63ZM8,24.47A7.36,7.36,0,0,0,6.34,24,2.34,2.34,0,0,0,4,26.81a3.9,3.9,0,0,0,1.62,2.53,1.75,1.75,0,0,0,1.76.2,2.49,2.49,0,0,0,1.26-2A26.68,26.68,0,0,0,8,24.47Zm2.48,3.83a10.16,10.16,0,0,0,1.1-.21,2.05,2.05,0,0,0,1.26-1.89,8.64,8.64,0,0,0-.53-1.3,1.22,1.22,0,0,0-.53-.5c-.52-.24-1.07-.4-1.59-.64A.76.76,0,0,0,9,24.34,7,7,0,0,0,9.16,27C9.22,28,9.47,28.25,10.46,28.3ZM8.55,20.85A17.39,17.39,0,0,0,10,19.7a5.4,5.4,0,0,0,1.15-1.42,1.81,1.81,0,0,0-.83-2.42l0,0a1.86,1.86,0,0,0-2.42,1v0C7.11,18.36,7.58,19.6,8.55,20.85Zm1.55,1.89a9.11,9.11,0,0,1,1.59.64.91.91,0,0,0,1.19.17,1.17,1.17,0,0,0,.51-1.35c-.17-.5-.39-1-.58-1.49a1.22,1.22,0,0,0-1.52-.82l-.08,0A6.24,6.24,0,0,0,9.6,21.16a.51.51,0,0,0,.06.25c.15.46.31.92.44,1.33Z"/><path d="M29.52,11.66l1.89,1.73,0,.18a4.46,4.46,0,0,1-1.1-.42A1.44,1.44,0,0,1,29.52,11.66Z"/><path d="M6,3,7.66,4.33A1.53,1.53,0,0,1,6,3Z"/><path d="M11.73,6.65l2-1.27A1.8,1.8,0,0,1,11.73,6.65Z"/><path d="M29.14,16.56,28,14.67C28.66,14.68,29,15.16,29.14,16.56Z"/><path d="M26,9.87a2.12,2.12,0,0,1-.72-2.65Z"/><path d="M21.57,10.47l2.05,1.29A1.81,1.81,0,0,1,21.57,10.47Z"/><path d="M5.08,7.7a5.21,5.21,0,0,1,2.48-.13l0,.24-2.46.26Z"/><path d="M10.39,9.73a1.29,1.29,0,0,1,.51,1.76v0Z"/><path d="M5.66,20.7l-2-2.17A3.59,3.59,0,0,1,5.66,20.7Z"/><path d="M2.94,22.35l1.95.18a1.16,1.16,0,0,1-1.95-.18Z"/><path d="M7,26.2l-.19,2.13-.21,0C6.16,27.54,6.88,26.91,7,26.2Z"/><path d="M10.46,26.68,9.74,25l.24-.11a2.37,2.37,0,0,1,.74,1.68Z"/><path d="M8.91,18.79l.31-1.65.29.05-.33,1.63Z"/><path d="M12.2,21.81a3.42,3.42,0,0,1-1,.42,1.57,1.57,0,0,1-.71-.34l.06-.15,1.51-.1Z"/></g></g></svg>