<svg xmlns="http://www.w3.org/2000/svg" data-name="Слой 1" viewBox="0 0 100 125" x="0px" y="0px"><title>flower</title><g><path d="M58.66361,84.14252a0.58441,0.58441,0,0,1-.95143-0.36167c-0.71916-1.90679-1.4573-3.80687-2.14275-5.72575-0.64368-1.802-1.231-3.6241-1.84112-5.438-0.7833-2.32865-1.57045-4.65605-2.34365-6.988q-0.38547-1.16262-.70714-2.34608a1.6126,1.6126,0,0,0-.93314-1.15024,12.03225,12.03225,0,0,1-5.53512-5.585c-0.49677-.89879-0.82119-1.8917-1.29654-2.804a9.25681,9.25681,0,0,0-.91746-1.12458,1.75379,1.75379,0,0,1-.1745-0.52993,1.06105,1.06105,0,0,1,.51448.02051c2.00175,1.50755,4.5014,2.42935,5.8065,4.758a30.09878,30.09878,0,0,1,1.32972,3.0044,1.99369,1.99369,0,0,1,.00718.58447c-0.80518-1.41287-1.45932-2.727-2.26962-3.93651a7.99573,7.99573,0,0,0-3.44891-2.70758c0.29146,2.71329,3.962,7.21044,6.27513,7.66747a107.26145,107.26145,0,0,0-4.854-16.5479l0.30211-.1203a6.46148,6.46148,0,0,1,.51189.98249c0.878,2.71012,1.77423,5.41546,2.58393,8.14626,0.61148,2.06227,1.05337,4.17473,1.661,6.23827,0.87481,2.97076,1.83156,5.91738,2.75334,8.87431l0.23224-.0619c-0.2507-1.2619-.51138-2.5219-0.74953-3.78615-0.28995-1.53924-.55751-3.08269-0.84109-4.62316-0.26688-1.44977-.553-2.896-0.811-4.34736-0.40961-2.30446-.78769-4.61462-1.20679-6.91733-0.53619-2.946-1.07261-5.89249-1.66344-8.82779-0.28486-1.41523-.72165-2.79919-1.04122-4.20828-0.48071-2.11961-.91838-4.249-1.37566-6.3739a0.4933,0.4933,0,0,0-.72889-0.46086A1.6956,1.6956,0,0,1,42.8916,28.785a3.69024,3.69024,0,0,1-1.0519-3.13783,2.76521,2.76521,0,0,0-.03791-0.68677c-0.8441.17232-1.61192,0.31859-2.37481,0.48715a3.15642,3.15642,0,0,1-3.14723-1.25034,1.57142,1.57142,0,0,1-.13612-1.28646,1.11288,1.11288,0,0,1,1.05786-.95949,17.03248,17.03248,0,0,0,2.03224-.28135c-0.41607-.31878-0.69929-0.54484-0.99169-0.75831-1.56-1.13885-1.50582-2.5961-.71338-4.03963a0.77179,0.77179,0,0,1,1.16407-.26835c0.668,0.42288,1.28707.92515,1.91267,1.412a8.29966,8.29966,0,0,1,.65717.627,11.88263,11.88263,0,0,1,.56212-2.0832,1.37444,1.37444,0,0,1,2.078-.58894,2.2448,2.2448,0,0,1,1.42255,2.27816c-0.01094.36979,0.03538,0.74127,0.05945,1.18372,0.22417-.02247.39891-0.04673,0.57444-0.05635a10.58763,10.58763,0,0,1,1.79006-.07085,1.83183,1.83183,0,0,1,1.80921,1.40948,2.40069,2.40069,0,0,1-1.02994,2.246c-0.0855.07714-.20347,0.11716-0.29516,0.18877-0.69357.54165-.69314,0.7016-0.00446,1.20794,1.266,0.93079,1.71,2.24093,1.1301,3.33412a1.29751,1.29751,0,0,1-1.9007.71626c-0.13153-.049-0.265-0.09386-0.39334-0.15016-0.48385-.21227-0.89517-0.2569-1.1127.37192a0.83591,0.83591,0,0,1-.255.307c0.13454,0.40245.26586,0.70152,0.33392,1.01437,0.37763,1.73576.73718,3.47546,1.10882,5.21252,0.13435,0.628.28507,1.25243,0.42832,1.8785l0.263,0.01734c0.40646-1.41989.81727-2.83856,1.218-4.26,0.32217-1.14279.61862-2.293,0.9547-3.43157a1.01871,1.01871,0,0,1,.96047-0.90155,14.71763,14.71763,0,0,0-.54213,1.9954,8.229,8.229,0,0,0-.01014,2.154,21.30562,21.30562,0,0,1-.76073,9.36351c-0.14855.47725,0.00547,1.07758-.62015,1.39055a1.47747,1.47747,0,0,0,.00382.87441q0.53829,3.00561,1.11069,6.00511c0.40132,2.09172.84776,4.175,1.22857,6.27037,0.33,1.81572.595,3.64327,0.893,5.46489,0.01035,0.0633.06623,0.11916-.00216,0.00208,0-.98247.02574-2.13575-0.00509-3.28752a41.95968,41.95968,0,0,1,.51621-8.44467c0.19848-1.126.22081-2.282,0.35274-3.421a60.57713,60.57713,0,0,1,1.85976-9.853,22.69938,22.69938,0,0,1,.93555-2.41915,0.8394,0.8394,0,0,0-.30482-1.2929,1.26524,1.26524,0,0,1-.35078-1.70217c0.333-.98192.82077-1.91136,1.19423-2.75165-0.64722-.035-1.48915-0.03391-2.31817-0.13689A1.58558,1.58558,0,0,1,52.625,26.84617a1.80617,1.80617,0,0,1,1.59491-1.91447c0.68382-.06558,1.379-0.01271,2.0128-0.01271a17.37631,17.37631,0,0,0-.37788-1.81345,1.44653,1.44653,0,0,1,1.51809-1.79336,4.622,4.622,0,0,1,1.80323.49265,2.16281,2.16281,0,0,1,.69849.97025,6.978,6.978,0,0,1,.32738,1.16184c0.48866-.55144.83992-0.94378,1.18668-1.34a1.92319,1.92319,0,0,1,2.08981-.40412,1.60553,1.60553,0,0,1,1.118,1.40859c0.30291,1.48095.29781,1.482-.66925,2.62091a12.10483,12.10483,0,0,0,1.42681.52663,2.3597,2.3597,0,0,1,1.725,1.60057,1.33066,1.33066,0,0,1-.60806,1.69131c-0.627.35742-1.277,0.67468-1.76385,0.92945a7.53715,7.53715,0,0,1-.01656,1.58543c-0.43235,1.89812-3.59278,2.03032-4.70025.78448a0.7216,0.7216,0,0,0-1.15417-.10614,7.79606,7.79606,0,0,1-1.45888.39649,1.475,1.475,0,0,0-.79982.55957,25.22119,25.22119,0,0,0-2.244,7.793c-0.3046,2.20277-.61126,4.40536-0.895,6.61088-0.18484,1.43673-.33028,2.87856-0.39934,4.36651a12.19513,12.19513,0,0,0,1.1867-1.81528,16.58257,16.58257,0,0,1,3.87941-5.10949,7.62,7.62,0,0,0,.639-0.89405,4.51108,4.51108,0,0,1,.71048-0.86321,3.393,3.393,0,0,1,.88557-0.3691,1.88023,1.88023,0,0,1-.12743.97863c-1.021.75523-.98961,1.959-1.41077,2.96923-0.71917,1.725-1.55263,3.40453-2.22012,5.1483a11.81769,11.81769,0,0,1-3.12042,4.186,1.35842,1.35842,0,0,1-.46177.1838,1.14031,1.14031,0,0,1,.06857-0.54639c0.352-.40593.75621-0.76655,1.13944-1.14554a8.25818,8.25818,0,0,0,1.88454-3.00116,17.32722,17.32722,0,0,1,1.32029-2.62905,8.8597,8.8597,0,0,0,1.04356-3.25258,0.96624,0.96624,0,0,0-.29331.09948,12.48839,12.48839,0,0,0-3.08807,3.69409c-0.35911.80958-.91415,1.53026-1.30458,2.32834a7.56291,7.56291,0,0,0-1.01789,4.31777,30.23071,30.23071,0,0,1,.04809,3.16588,49.07434,49.07434,0,0,0,.93546,7.99262,79.56476,79.56476,0,0,0,2.49731,9.86531c0.528,1.66805,1.31608,3.2539,1.98948,4.87572C58.35573,83.46034,58.50176,83.77549,58.66361,84.14252Zm3.355-58.41026-0.107-.06193a1.433,1.433,0,0,1,.15079-0.4912c0.44974-.56034.936-1.09134,1.38817-1.6498a0.85484,0.85484,0,0,0,.26683-0.56984,0.836,0.836,0,0,0-.55722-0.341,1.66858,1.66858,0,0,0-1.93319.801c-0.32988.55615-.54255,1.18047-0.84862,1.75239-0.54068,1.01033-.11008,1.64153.73053,2.20779a1.101,1.101,0,0,1,.45785.84241,1.00491,1.00491,0,0,0,.76933,1.2807,2.00328,2.00328,0,0,1,.67579.36813,2.12271,2.12271,0,0,0,2.71667.08608,1.35514,1.35514,0,0,0,.03273-2.48608,3.96289,3.96289,0,0,0-3.68161-.49814A1.93158,1.93158,0,0,1,61.27,26.91886l-0.02553-.33679c0.45609-.11969.91544-0.22823,1.36767-0.361,1.64185-.48212,1.86979-1.08574,1.30132-2.81921ZM49.688,32.09608c-0.10939.3137-.22565,0.62519-0.32691,0.94151-0.32607,1.0185-.62569,2.046-0.97435,3.05663a7.97757,7.97757,0,0,0-.02691,4.13369c0.1422,0.78356.29988,1.56432,0.4506,2.34634l0.22325-.0297A19.13011,19.13011,0,0,0,49.688,32.09608Zm7.2936,1.13843a7.33218,7.33218,0,0,0,1.41138-.27328,1.28457,1.28457,0,0,0,.763-0.69038c-0.18179-1.03675.84989-2.45433-.86786-3.04476a0.39921,0.39921,0,0,1-.14807-0.147c-0.33013-.433-0.63663-0.33127-0.99369-0.00656a5.5677,5.5677,0,0,0-1.38506,2.468C55.335,32.76635,55.88731,33.0725,56.98159,33.23452ZM41.74032,21.8884c0.00259-1.61841-.14288-2.08531-1.12822-3.08467a17.34712,17.34712,0,0,0-1.968-1.66837,0.7378,0.7378,0,0,0-.71292.071,2.23906,2.23906,0,0,0,.1981,2.94457,35.16314,35.16314,0,0,0,3.1127,1.86329A0.9003,0.9003,0,0,0,41.74032,21.8884Zm3.15327,1.4753a2.78872,2.78872,0,0,1,.636.04637c1.7172,0.53729,2.37926-.27962,3.29391-1.49526a1.12444,1.12444,0,0,0-.73225-1.83621,2.85188,2.85188,0,0,0-3.18869.99694c-0.24245.30315-.50578,0.58962-0.725,0.84374Zm15.40033,6.138a10.6269,10.6269,0,0,1-.16371,2.14823,1.216,1.216,0,0,0,.56,1.634,2.85878,2.85878,0,0,0,2.873-.02137,1.53447,1.53447,0,0,0,.7025-1.17925,1.13115,1.13115,0,0,0-.91966-1.16609,3.48719,3.48719,0,0,1-2.06228-1.23235A0.65492,0.65492,0,0,0,60.29393,29.50165Zm-16.711-7.91619a13.94282,13.94282,0,0,1,.83367-1.59936,2.64726,2.64726,0,0,0,.34518-2.0824,1.51761,1.51761,0,0,0-1.51848-1.36553,1.24759,1.24759,0,0,0-1.18089,1.31964,14.78894,14.78894,0,0,0,.03371,2.36915C42.18648,21.54794,42.20539,21.54665,43.58289,21.58546ZM59.83505,24.837c-0.10351-.5353-0.20332-1.06185-0.30742-1.58757a1.88019,1.88019,0,0,0-2.55471-1.33214,1.34286,1.34286,0,0,0-.652.92951c-0.1275,1.69883,1.03085,2.66831,2.23689,3.54544a0.91274,0.91274,0,0,0,.88305-0.14364A5.78484,5.78484,0,0,0,59.83505,24.837Zm-13.94948.89459a2.19876,2.19876,0,0,0,1.53134,2.22175,1.13467,1.13467,0,0,0,1.36293-.0549,1.37151,1.37151,0,0,0,.32586-1.48562,3.04112,3.04112,0,0,0-2.84982-2.26746,1.93453,1.93453,0,0,1-.94972-0.18773c-0.40062-.18852-0.67062-0.09568-0.72676.2961a0.86941,0.86941,0,0,0,.463.50773,5.445,5.445,0,0,1,2.20357,1.85407l-0.12776.15694Zm9.599,2.74,0.061,0.11469a12.03922,12.03922,0,0,0,1.48487-.67906c1.248-.78048,1.24422-0.8959.07269-1.71064a3.60359,3.60359,0,0,0-2.94056-.78538,1.43244,1.43244,0,0,0-1.08781,1.44158,1.209,1.209,0,0,0,.96164,1.4178C54.51046,28.37632,55.00125,28.40724,55.48457,28.4716ZM39.50126,22.18652c-0.66374.06485-1.2641,0.13853-1.8667,0.17822a1.0934,1.0934,0,0,0-1.098.97777,1.14724,1.14724,0,0,0,.74033,1.15723,3.60244,3.60244,0,0,0,2.823.39015c1.03238-.22645,1.0345-0.21513.92222-1.25784a0.7643,0.7643,0,0,1-.01266-0.278c0.24523-.84595-0.39544-0.96143-0.94338-1.129A2.213,2.213,0,0,0,39.50126,22.18652ZM44.273,29.20588l0.11941-.15429a2.62609,2.62609,0,0,0,.34878-0.02772,1.01514,1.01514,0,0,0,.65572-1.68285,5.641,5.641,0,0,1-.65281-1.15412c-0.49793-1.15483-.48532-1.16027-1.68149-0.92752-0.82092.15973-1.025,0.3495-.84569,1.1628a5.16759,5.16759,0,0,0,.78651,1.83274A5.08166,5.08166,0,0,0,44.273,29.20588Zm1.30676-2.24076L45.744,26.871l-0.59783-1.82335-0.31078.12092Z"/><path d="M41.72552,44.23009c-0.2602.32624-.533,0.7011-0.83943,1.046a1.958,1.958,0,0,1-2.84649.13471,4.28122,4.28122,0,0,1-1.79168-3.46926,11.33266,11.33266,0,0,1,.30976-1.60341c-1.32312.584-2.11567-.43874-3.10108-0.82826a1.02518,1.02518,0,0,1-.40151-1.62571,3.222,3.222,0,0,1,2.08914-1.87506,9.59855,9.59855,0,0,0-.19791-1.08341,2.85027,2.85027,0,0,1,.97011-2.90726,2.36911,2.36911,0,0,1,2.49862.16677c0.5124,0.49056.9427,1.06689,1.4134,1.61048,0.18366-2.40639,1.80377-3.0224,3.13282-2.79719,1.33166,0.22564,1.64165,1.30839,1.122,4.02738,2.09439-.02419,2.31511,1.60656,2.61612,3.09114,0.15627,0.77076-.4183,1.43035-1.45022,1.87377,1.063,1.34782,1.43588,2.80588-.11007,3.96039A3.615,3.615,0,0,1,41.72552,44.23009Zm-1.8097-7.75778-0.24625-.02859c-0.02668-.239-0.03883-0.48077-0.08285-0.71657a7.63592,7.63592,0,0,0-.40722-1.90164A2.33357,2.33357,0,0,0,36.9669,32.1757a1.69042,1.69042,0,0,0-1.5004,1.27409,1.98252,1.98252,0,0,0,1.25734,2.74892,8.80668,8.80668,0,0,1,1.71535.92982,1.18423,1.18423,0,0,1,.22756.5321,1.186,1.186,0,0,1-.5607.1,16.05347,16.05347,0,0,1-1.87277-.92946,1.4442,1.4442,0,0,0-1.71006-.06192,7.17628,7.17628,0,0,0-1.18453,1.74138,0.49761,0.49761,0,0,0,.10548.38611,3.08041,3.08041,0,0,0,3.68064.63817,1.416,1.416,0,0,1,.80834-0.33978A0.85809,0.85809,0,0,0,39.003,38.093a1.28618,1.28618,0,0,1,1.28348-1.48516,0.98717,0.98717,0,0,0,.23175-0.15061l-0.2815-.62631Zm0.86466,3.70161a7.345,7.345,0,0,0-1.64043-.48105,2.32471,2.32471,0,0,0-2.36137,2.82749,3.888,3.888,0,0,0,1.61895,2.52458,1.73286,1.73286,0,0,0,1.76024.20264,2.47748,2.47748,0,0,0,1.25638-1.987A25.16578,25.16578,0,0,0,40.78048,40.17392Zm2.48637,3.83362a10.68154,10.68154,0,0,0,1.095-.20538,2.06685,2.06685,0,0,0,1.2622-1.89392,8.55145,8.55145,0,0,0-.52968-1.30023,1.226,1.226,0,0,0-.53354-0.49977c-0.51519-.24245-1.071-0.39872-1.58586-0.64174a0.76442,0.76442,0,0,0-1.17953.57871,6.94623,6.94623,0,0,0,.16655,2.62487C42.02451,43.685,42.27619,43.9608,43.26685,44.00754Zm-1.91116-7.4459a17.69539,17.69539,0,0,0,1.42226-1.15806,5.15032,5.15032,0,0,0,1.145-1.41838,1.80994,1.80994,0,0,0-.86323-2.43669A1.8522,1.8522,0,0,0,40.63194,32.608C39.91511,34.06405,40.38948,35.30888,41.35569,36.56164Zm1.55209,1.88484a9.3649,9.3649,0,0,1,1.589.64061,0.905,0.905,0,0,0,1.18779.17148,1.18,1.18,0,0,0,.51434-1.34668c-0.17839-.50524-0.39376-0.99735-0.58822-1.49705a1.21462,1.21462,0,0,0-1.59179-.78914,6.32983,6.32983,0,0,0-1.611,1.24531,0.51383,0.51383,0,0,0,.05969.25173C42.61831,37.58093,42.77175,38.03825,42.90777,38.44648Z"/><path d="M62.32948,27.36865l1.881,1.73174-0.03351.18a4.47257,4.47257,0,0,1-1.09905-.4174A1.44848,1.44848,0,0,1,62.32948,27.36865Z"/><path d="M38.8024,18.67213l1.66572,1.36982A1.54306,1.54306,0,0,1,38.8024,18.67213Z"/><path d="M44.53318,22.35955l2.01572-1.27582A1.81248,1.81248,0,0,1,44.53318,22.35955Z"/><path d="M61.94617,32.27057L60.7536,30.3734C61.46123,30.38428,61.7818,30.86327,61.94617,32.27057Z"/><path d="M58.78083,25.58013a2.14551,2.14551,0,0,1-.7205-2.65682Z"/><path d="M54.37628,26.17488l2.04989,1.29642A1.81733,1.81733,0,0,1,54.37628,26.17488Z"/><path d="M37.88062,23.40977a5.22579,5.22579,0,0,1,2.48782-.13469l0.02116,0.24264L37.923,23.775Z"/><path d="M43.19627,25.43959a1.29517,1.29517,0,0,1,.49355,1.79105Z"/><path d="M38.4676,36.40342q-1.0217-1.08048-2.04293-2.16108A3.59511,3.59511,0,0,1,38.4676,36.40342Z"/><path d="M35.7497,38.05646l1.94039,0.18383A1.14247,1.14247,0,0,1,35.7497,38.05646Z"/><path d="M39.78869,41.907L39.593,44.03944l-0.2086-.02335C38.9604,43.24418,39.68109,42.61358,39.78869,41.907Z"/><path d="M43.26257,42.38472l-0.7208-1.68094,0.24371-.10822a2.38539,2.38539,0,0,1,.73752,1.67767Z"/><path d="M41.71192,34.49729l0.311-1.65152,0.287,0.04767-0.32926,1.633Z"/><path d="M45.00655,37.518a3.69528,3.69528,0,0,1-.98173.4193,1.648,1.648,0,0,1-.71317-0.33667l0.06684-.15672,1.504-.09869Z"/></g></svg>